<svg>
<g>
	<g>
		<rect x="37.3" y="4.4" width="2.1" height="2.1"/>
		<rect x="32" y="4.4" width="2.1" height="2.1"/>
		<rect x="26.7" y="4.4" width="2.1" height="2.1"/>
		<polygon points="12.6,20.6 20,23.9 20,22.5 14.1,20.1 20,17.6 20,16.2 12.6,19.3 		"/>
		<polygon points="24,14.1 20.8,25.6 21.9,25.6 25.1,14.1 		"/>
		<polygon points="33.3,19.2 25.9,16.1 25.9,17.5 31.8,20 25.9,22.4 25.9,23.8 33.3,20.6 		"/>
		<path d="M37.3,31.5c-3.2,0-5.9,2.7-5.9,5.9s2.7,5.9,5.9,5.9c3.2,0,5.9-2.7,5.9-5.9S40.6,31.5,37.3,31.5z M37.3,41.1
			c-2,0-3.7-1.7-3.7-3.7s1.7-3.7,3.7-3.7c2,0,3.7,1.7,3.7,3.7C41.1,39.4,39.4,41.1,37.3,41.1z"/>
		<path d="M48.6,34.4h-2c-0.2-0.5-0.4-1-0.6-1.4l1.4-1.4c0.5-0.5,0.5-1.4,0-2L45.9,28V0H0v44.8c0,0.6,0.4,1.1,1.1,1.1h26.7l1.7,1.7
			c0.5,0.5,1.4,0.5,2,0l1.4-1.4c0.5,0.2,0.9,0.4,1.4,0.6v2c0,0.8,0.6,1.4,1.4,1.4h3.3c0.8,0,1.4-0.6,1.4-1.4v-2
			c0.5-0.2,1-0.4,1.4-0.6l1.4,1.4c0.5,0.5,1.4,0.5,2,0l2.3-2.3c0.5-0.5,0.5-1.4,0-2L46,41.9c0.2-0.5,0.4-0.9,0.6-1.4h2
			c0.8,0,1.4-0.6,1.4-1.4v-3.3C50,35,49.4,34.4,48.6,34.4L48.6,34.4z M2.1,2.1h41.6v6.7H2.1V2.1z M27.1,43.3
			c-0.1,0.1-0.2,0.3-0.3,0.5H2V11h41.6v15.9c-0.2,0.1-0.4,0.2-0.5,0.3l-1.4,1.4c-0.5-0.2-0.9-0.4-1.4-0.6v-2c0-0.8-0.6-1.4-1.4-1.4
			h-3.3c-0.8,0-1.4,0.6-1.4,1.4v2c-0.5,0.2-1,0.4-1.4,0.6l-1.4-1.4c-0.5-0.5-1.4-0.5-2,0l-2.3,2.3c-0.5,0.5-0.5,1.4,0,2l1.4,1.4
			c-0.2,0.5-0.4,0.9-0.6,1.4h-2c-0.8,0-1.4,0.6-1.4,1.4v3.3c0,0.8,0.6,1.4,1.4,1.4h2c0.2,0.5,0.4,1,0.6,1.4L27.1,43.3L27.1,43.3z
			 M47.9,38.3h-2.5c-0.2,1.6-0.8,3-1.7,4.2l1.8,1.8l-1.3,1.3l-1.8-1.8c-1.2,0.9-2.6,1.6-4.2,1.7V48h-1.8v-2.5
			c-1.6-0.2-3-0.8-4.2-1.7l-1.8,1.8l-1.3-1.3l1.8-1.8c-0.9-1.2-1.6-2.6-1.7-4.2h-2.5v-1.8h2.5c0.2-1.6,0.8-3,1.7-4.2l-1.8-1.8
			l1.3-1.3l1.8,1.8c1.2-0.9,2.6-1.6,4.2-1.7v-2.5h1.8v2.5c1.6,0.2,3,0.8,4.2,1.7l1.8-1.8l1.3,1.3l-1.8,1.8c0.9,1.2,1.6,2.6,1.7,4.2
			h2.5V38.3z"/>
	</g>
</g>
</svg>
