<svg  class="st0" viewBox="0 0 109.5 67" width="110" height="67">
    <path d="M97.1,58.4h-2v-2.2c0-12.1,0-24.1,0-36.2c0-1.6-0.1-3.1-0.4-4.8C93.7,8.5,87.8,3.6,81,3.9C57.1,4.1,33,4,9.1,4
    c-3,0-3.8,0.8-3.8,3.8v31.5c0,3.4,0,3.8,2.7,4.9c0.5,0.2,0.8,0.7,0.9,1.3v7.7c0,0.8,0.6,1.4,1.4,1.4l0,0h2.3c0.8,0,1.4-0.6,1.4-1.4
    l0,0c0-2.4-0.1-4.9,0.1-7.3c0.1-0.8,0.6-1.4,1.2-1.8c4-1.5,5.5-4.7,5.7-8.6c0.3-6.1,2.6-8.4,8.7-8.4h29.9c4.4,0,6,1.2,6.1,5.6
    c0.1,4.9-0.2,9.7-0.7,14.6c-0.3,3.6-1.1,7.3-1.8,11.1H2.7C1.2,58.3,0,59.5,0,61v0.4c0,1.5,1.2,2.7,2.7,2.7h9.3v0.2
    c0,1.4,1.2,2.6,2.6,2.6h9.5c1.4,0,2.6-1.2,2.6-2.6v-0.2H73v0.2c0,1.4,1.2,2.6,2.6,2.6h9.5c1.4,0,2.6-1.2,2.6-2.6v-0.2h9.3
    c1.5,0,2.7-1.2,2.7-2.7V61C99.8,59.6,98.6,58.4,97.1,58.4z M89.5,57.3L89.5,57.3c0,0.4-0.2,0.9-0.6,1.1c-0.2,0.2-0.5,0.2-0.8,0.2
    H70.9c-0.3,0-0.5-0.1-0.8-0.2c-0.4-0.3-0.7-0.8-0.6-1.3c0.6-4.6,1.3-9,1.7-13.5c0.4-3.9,0.5-7.7,0.2-11.6C71,24.9,66.9,21.5,60,21.5
    H29.1c-8.4,0-13.4,4.9-13.7,13.2c-0.1,2.5-0.8,3.8-2.8,4.1c-0.7,0.1-1.4-0.4-1.5-1.2c0-0.1,0-0.1,0-0.2V10.9c0-0.8,0.6-1.4,1.4-1.4
    h68.3c4.6,0,7.3,2.1,8.2,6.5c0.3,1,0.4,2.1,0.4,3.2C89.5,32,89.5,44.6,89.5,57.3z"/>
  <path d="M99.6,14h0.4c1.3,0,2.3,1,2.3,2.3v15c0,1.3-1,2.3-2.3,2.3h-0.4c-1.3,0-2.3-1-2.3-2.3v-15C97.3,15.1,98.4,14,99.6,14z"/>
  <path d="M88.9,58.4c-0.2,0.2-0.5,0.2-0.8,0.2H70.9c-0.3,0-0.5-0.1-0.8-0.2H88.9z"/>
  <path d="M109.5,2.3v43.1c0,1.3-1,2.3-2.3,2.3h-0.4c-1.3,0-2.3-1-2.3-2.3l0,0V2.3c0-1.3,1-2.3,2.3-2.3l0,0h0.4
    C108.5,0,109.5,1,109.5,2.3z"/>
</svg>
