<svg>

		<path d="M46.2,13.5c-0.2-0.5-0.7-0.8-1.2-0.8c-0.2,0-0.3,0-0.5,0.1L39.4,15L38,15.7V1.3C38,0.6,37.4,0,36.7,0H8.9
			C8.2,0,7.6,0.6,7.6,1.3v27.3L7,28.9l-6.2,2.7c-0.3,0.1-0.6,0.4-0.7,0.7c-0.1,0.3-0.1,0.7,0,1C0.3,33.7,0.8,34,1.3,34
			c0.2,0,0.3,0,0.5-0.1l35.4-15.1l8.3-3.6c0.3-0.1,0.6-0.4,0.7-0.7C46.3,14.2,46.3,13.8,46.2,13.5z M35.4,16.8L34.8,17l-23.2,9.9
			l-1.4,0.6v-25h25.2V16.8z"/>

		<path d="M45.5,38.6l-8.3,3.6L9.4,54.1l-7.6,3.2c-0.2,0.1-0.3,0.1-0.5,0.1c-0.5,0-1-0.3-1.2-0.8c-0.3-0.7,0-1.4,0.7-1.7L7,52.3
			l0.6-0.3V37.5c0-0.7,0.6-1.3,1.3-1.3c0.7,0,1.3,0.6,1.3,1.3V51l1.4-0.6l23.2-9.9l0.6-0.3V27.2c0-0.7,0.6-1.3,1.3-1.3
			c0.7,0,1.3,0.6,1.3,1.3v11.8l1.4-0.6l5.1-2.2c0.1-0.1,0.3-0.1,0.5-0.1c0.5,0,1,0.3,1.2,0.8C46.5,37.6,46.2,38.4,45.5,38.6z"/>

		<path d="M46.2,60.4c-0.2-0.5-0.7-0.8-1.2-0.8c-0.2,0-0.3,0-0.5,0.1l-5.1,2.2L38,62.5V50c0-0.7-0.6-1.3-1.3-1.3
			c-0.7,0-1.3,0.6-1.3,1.3v13.6l-0.6,0.3l-23.2,9.9l-1.4,0.6V60.9c0-0.7-0.6-1.3-1.3-1.3c-0.7,0-1.3,0.6-1.3,1.3v14.6L7,75.8
			l-6.2,2.7c-0.6,0.3-0.9,1-0.7,1.7c0.2,0.5,0.7,0.8,1.2,0.8c0.2,0,0.3,0,0.5-0.1l6.3-2.7L9,77.7l0.4,0.8l12.3,20.9
			c0.2,0.4,0.7,0.6,1.1,0.6c0.4,0,0.9-0.2,1.1-0.6l13.9-23.7c0.1-0.2,0.2-0.4,0.2-0.7v-9.7l0.6-0.3l6.9-3
			C46.2,61.8,46.5,61,46.2,60.4z M35.4,74.7l-0.1,0.2L23.7,94.7l-0.9,1.5l-0.9-1.5l-10-17l-0.6-1l1.1-0.4L34,67l1.4-0.6V74.7z"/>

</svg>
