<svg>
<g>
	<path d="M46,17.5c2.2,0,4-1.8,4-4V8.3c0-2.2-1.8-4-4-4H4c-2.2,0-4,1.8-4,4v5.2c0,2.2,1.8,4,4,4h18.7v1H4c-2.2,0-4,1.8-4,4v5.2
		c0,2.2,1.8,4,4,4h18.7v0.9H4c-2.2,0-4,1.8-4,4v5.2c0,2.2,1.8,4,4,4h42c2.2,0,4-1.8,4-4v-5.2c0-2.2-1.8-4-4-4H27.4v-0.9H46
		c2.2,0,4-1.8,4-4v-5.2c0-2.2-1.8-4-4-4H27.4v-1L46,17.5L46,17.5z M1.9,13.5V8.3c0-1.2,0.9-2.1,2.1-2.1h42c1.2,0,2.1,0.9,2.1,2.1
		v5.2c0,1.2-0.9,2.1-2.1,2.1H4C2.8,15.6,1.9,14.6,1.9,13.5z M48.1,36.5v5.2c0,1.2-0.9,2.1-2.1,2.1H4c-1.2,0-2.1-0.9-2.1-2.1v-5.2
		c0-1.2,0.9-2.1,2.1-2.1h42C47.2,34.4,48.1,35.4,48.1,36.5z M25.5,32.5h-0.9v-0.9h0.9V32.5z M48.1,22.4v5.2c0,1.2-0.9,2.1-2.1,2.1H4
		c-1.2,0-2.1-0.9-2.1-2.1v-5.2c0-1.2,0.9-2.1,2.1-2.1h42C47.2,20.3,48.1,21.2,48.1,22.4z M25.5,18.4h-0.9v-1h0.9V18.4z"/>
	<path d="M6.6,8C5,8,3.8,9.3,3.8,10.9c0,1.6,1.3,2.8,2.8,2.8c1.6,0,2.8-1.3,2.8-2.8C9.4,9.3,8.2,8,6.6,8z M6.6,11.8
		c-0.5,0-0.9-0.4-0.9-0.9c0-0.5,0.4-0.9,0.9-0.9s0.9,0.4,0.9,0.9C7.6,11.4,7.1,11.8,6.6,11.8z"/>
	<path d="M43.4,13.7c1.6,0,2.8-1.3,2.8-2.8c0-1.6-1.3-2.8-2.8-2.8c-1.6,0-2.8,1.3-2.8,2.8C40.5,12.4,41.8,13.7,43.4,13.7z M43.4,9.9
		c0.5,0,0.9,0.4,0.9,0.9c0,0.5-0.4,0.9-0.9,0.9c-0.5,0-0.9-0.4-0.9-0.9C42.4,10.3,42.9,9.9,43.4,9.9z"/>
	<path d="M36.8,13.7c1.6,0,2.8-1.3,2.8-2.8c0-1.6-1.3-2.8-2.8-2.8S34,9.3,34,10.9C34,12.4,35.2,13.7,36.8,13.7z M36.8,9.9
		c0.5,0,0.9,0.4,0.9,0.9c0,0.5-0.4,0.9-0.9,0.9s-0.9-0.4-0.9-0.9C35.8,10.3,36.3,9.9,36.8,9.9z"/>
	<path d="M33.1,10.9c0-1.6-1.3-2.8-2.8-2.8h-17c-1.6,0-2.8,1.3-2.8,2.8c0,1.6,1.3,2.8,2.8,2.8h17C31.8,13.7,33.1,12.4,33.1,10.9z
		 M12.3,10.9c0-0.5,0.4-0.9,0.9-0.9h17c0.5,0,0.9,0.4,0.9,0.9c0,0.5-0.4,0.9-0.9,0.9h-17C12.7,11.8,12.3,11.4,12.3,10.9z"/>
	<path d="M6.6,27.8c1.6,0,2.8-1.3,2.8-2.8c0-1.6-1.3-2.8-2.8-2.8S3.8,23.4,3.8,25C3.8,26.6,5,27.8,6.6,27.8z M6.6,24.1
		c0.5,0,0.9,0.4,0.9,0.9c0,0.5-0.4,0.9-0.9,0.9S5.7,25.5,5.7,25C5.7,24.5,6.1,24.1,6.6,24.1z"/>
	<path d="M43.4,27.8c1.6,0,2.8-1.3,2.8-2.8c0-1.6-1.3-2.8-2.8-2.8c-1.6,0-2.8,1.3-2.8,2.8C40.5,26.6,41.8,27.8,43.4,27.8z
		 M43.4,24.1c0.5,0,0.9,0.4,0.9,0.9c0,0.5-0.4,0.9-0.9,0.9c-0.5,0-0.9-0.4-0.9-0.9C42.4,24.5,42.9,24.1,43.4,24.1z"/>
	<path d="M36.8,27.8c1.6,0,2.8-1.3,2.8-2.8c0-1.6-1.3-2.8-2.8-2.8S34,23.4,34,25C34,26.6,35.2,27.8,36.8,27.8z M36.8,24.1
		c0.5,0,0.9,0.4,0.9,0.9c0,0.5-0.4,0.9-0.9,0.9s-0.9-0.4-0.9-0.9C35.8,24.5,36.3,24.1,36.8,24.1z"/>
	<path d="M13.2,27.9h17c1.6,0,2.8-1.3,2.8-2.8c0-1.6-1.3-2.8-2.8-2.8h-17c-1.6,0-2.8,1.3-2.8,2.8C10.4,26.6,11.6,27.9,13.2,27.9z
		 M13.2,24.1h17c0.5,0,0.9,0.4,0.9,0.9c0,0.5-0.4,0.9-0.9,0.9h-17c-0.5,0-0.9-0.4-0.9-0.9C12.3,24.5,12.7,24.1,13.2,24.1z"/>
	<path d="M6.6,42c1.6,0,2.8-1.3,2.8-2.8c0-1.6-1.3-2.8-2.8-2.8s-2.8,1.3-2.8,2.8C3.8,40.7,5,42,6.6,42z M6.6,38.2
		c0.5,0,0.9,0.4,0.9,0.9c0,0.5-0.4,0.9-0.9,0.9s-0.9-0.4-0.9-0.9C5.7,38.6,6.1,38.2,6.6,38.2z"/>
	<path d="M43.4,42c1.6,0,2.8-1.3,2.8-2.8c0-1.6-1.3-2.8-2.8-2.8c-1.6,0-2.8,1.3-2.8,2.8C40.5,40.7,41.8,42,43.4,42z M43.4,38.2
		c0.5,0,0.9,0.4,0.9,0.9c0,0.5-0.4,0.9-0.9,0.9c-0.5,0-0.9-0.4-0.9-0.9C42.4,38.6,42.9,38.2,43.4,38.2z"/>
	<path d="M36.8,42c1.6,0,2.8-1.3,2.8-2.8c0-1.6-1.3-2.8-2.8-2.8S34,37.6,34,39.1C34,40.7,35.2,42,36.8,42z M36.8,38.2
		c0.5,0,0.9,0.4,0.9,0.9c0,0.5-0.4,0.9-0.9,0.9s-0.9-0.4-0.9-0.9C35.8,38.6,36.3,38.2,36.8,38.2z"/>
	<path d="M13.2,42h17c1.6,0,2.8-1.3,2.8-2.8c0-1.6-1.3-2.8-2.8-2.8h-17c-1.6,0-2.8,1.3-2.8,2.8C10.4,40.7,11.6,42,13.2,42z
		 M13.2,38.2h17c0.5,0,0.9,0.4,0.9,0.9c0,0.5-0.4,0.9-0.9,0.9h-17c-0.5,0-0.9-0.4-0.9-0.9C12.3,38.6,12.7,38.2,13.2,38.2z"/>
</g>
</svg>
